#!OML:ASF Y:\EmotionMaleHayes\Project 1\Capture day 1\Session 1\Male1.ASF
:FULLY-SPECIFIED
:DEGREES
926
root 17.1042 16.7989 6.41435 -354.84 202.392 5.12458
lowerback 11.6475 4.56574 4.18753
upperback 3.2596 6.29412 1.10135
thorax -2.7518 2.99418 -2.03542
lowerneck -23.9056 4.79556 10.9506
upperneck 24.832 2.25882 -0.335745
head 12.3989 1.88872 -1.56128
rclavicle 7.60351e-014 5.56597e-015
rhumerus -30.7189 32.6806 -98.1002
rradius 61.3326
rwrist -11.1404
rhand -18.4568 -25.2036
rfingers 7.12502
rthumb 7.82942 -55.0386
lclavicle 7.60351e-014 5.56597e-015
lhumerus -49.4595 -12.3696 91.1373
lradius 36.5104
lwrist 4.8119
lhand -22.9627 -17.2041
lfingers 7.12502
lthumb 3.4791 12.7473
rfemur 7.12788 -5.65588 35.8991
rtibia 6.45475
rfoot -20.3073 12.6966
rtoes 32.9863
lfemur -34.2232 6.81831 -5.17931
ltibia 51.516
lfoot -12.749 8.714
ltoes -34.8092
927
root 16.9334 16.7354 6.24444 -355.034 201.319 5.59349
lowerback 11.6729 4.70341 4.70263
upperback 3.37929 6.51341 1.03637
thorax -2.55903 3.10267 -2.40472
lowerneck -23.8229 5.07116 11.0841
upperneck 24.5753 2.72219 -0.620098
head 12.3148 2.06737 -1.60757
rclavicle -7.05686e-014 -2.90226e-014
rhumerus -29.3413 35.6252 -98.2532
rradius 64.0378
rwrist -11.0708
rhand -18.5457 -25.6496
rfingers 7.12502
rthumb 7.74367 -55.4878
lclavicle -7.05686e-014 -2.90226e-014
lhumerus -50.8476 -11.6222 90.5725
lradius 35.7041
lwrist 4.89593
lhand -23.1037 -16.8524
lfingers 7.12502
lthumb 3.34291 13.1011
rfemur 8.38046 -5.79393 35.678
rtibia 6.25704
rfoot -20.5286 13.8476
rtoes 34.4231
lfemur -35.8806 7.35949 -5.05106
ltibia 49.7273
lfoot -13.2402 8.7012
ltoes -32.8662
928
root 16.7689 16.6627 6.07148 -355.242 200.114 6.05675
lowerback 11.8635 4.94496 5.09847
upperback 3.40578 6.87508 0.986504
thorax -2.55386 3.27732 -2.72996
lowerneck -23.6873 5.2514 11.2634
upperneck 24.3213 3.07794 -1.03174
head 12.2193 2.186 -1.73013
rclavicle -2.66371e-014 1.25234e-014
rhumerus -26.9165 37.6515 -98.2201
rradius 65.1911
rwrist -10.6636
rhand -18.6906 -25.4335
rfingers 7.12502
rthumb 7.60377 -55.2768
lclavicle -2.66371e-014 1.25234e-014
lhumerus -52.6757 -11.6555 90.4167
lradius 35.397
lwrist 5.54671
lhand -22.5348 -16.2331
lfingers 7.12502
lthumb 3.89237 13.7111
rfemur 9.56713 -5.91434 35.4517
rtibia 6.22182
rfoot -20.621 14.9684
rtoes 35.1066
lfemur -37.3041 8.28115 -5.00146
ltibia 47.6448
lfoot -13.4045 8.86027
ltoes -31.7491
929
root 16.6146 16.5845 5.88686 -355.384 198.716 6.34522
lowerback 12.0326 5.29363 5.15662
upperback 3.43238 7.34053 0.900913
thorax -2.56117 3.5049 -2.91882
lowerneck -23.7138 5.42081 11.4854
upperneck 24.1473 3.38605 -1.47755
head 12.1878 2.28552 -1.87871
rclavicle 5.08889e-014 -5.36719e-015
rhumerus -24.6258 39.5586 -97.9617
rradius 66.521
rwrist -10.6412
rhand -19.1339 -24.8602
rfingers 7.12502
rthumb 7.17588 -54.7185
lclavicle 5.08889e-014 -5.36719e-015
lhumerus -54.6825 -12.02 90.4974
lradius 35.3504
lwrist 6.30661
lhand -22.0106 -15.7708
lfingers 7.12502
lthumb 4.39854 14.1635
rfemur 10.7453 -5.46067 35.2567
rtibia 6.26387
rfoot -21.0065 15.2562
rtoes 34.0794
lfemur -38.5016 9.75036 -5.28293
ltibia 45.2619
lfoot -13.1306 9.37188
ltoes -34.3239
930
root 16.464 16.5022 5.69071 -355.51 197.476 6.2849
lowerback 12.0742 5.5404 4.7215
upperback 3.61371 7.59145 0.824099
thorax -2.42015 3.63025 -2.78382
lowerneck -23.7317 5.71994 11.6166
upperneck 23.8434 3.9073 -1.88335
head 12.1188 2.47611 -1.95773
rclavicle -1.13804e-014 2.98177e-014
rhumerus -22.046 41.6198 -97.411
rradius 67.764
rwrist -10.6774
rhand -19.6186 -24.844
rfingers 7.12502
rthumb 6.70797 -54.7178
lclavicle -1.13804e-014 2.98177e-014
lhumerus -56.5581 -11.8283 90.4418
lradius 35.5671
lwrist 6.52781
lhand -22.6362 -16.4743
lfingers 7.12502
lthumb 3.79445 13.4717
rfemur 12.108 -4.66276 34.8623
rtibia 6.20367
rfoot -21.6528 14.9108
rtoes 32.919
lfemur -39.3667 10.9745 -5.91144
ltibia 42.5328
lfoot -13.3632 9.28844
ltoes -32.706
931
root 16.3197 16.4168 5.48945 -355.707 196.362 5.92487
lowerback 12.1753 5.74592 3.9504
upperback 3.8649 7.74175 0.703528
thorax -2.28822 3.7022 -2.50289
lowerneck -23.5691 6.00331 11.7709
upperneck 23.4165 4.45237 -2.39056
head 11.9758 2.66517 -2.07665
rclavicle 1.17879e-013 -1.45113e-014
rhumerus -19.2072 43.3453 -96.7126
rradius 68.7075
rwrist -10.5376
rhand -19.9339 -25.2647
rfingers 7.12502
rthumb 6.4036 -55.1479
lclavicle 1.17879e-013 -1.45113e-014
lhumerus -58.3799 -11.6015 90.3594
lradius 36.0054
lwrist 6.82461
lhand -22.8644 -17.1646
lfingers 7.12502
lthumb 3.57409 12.7852
rfemur 13.6318 -3.93875 34.1598
rtibia 6.08813
rfoot -22.2091 14.4888
rtoes 32.1056
lfemur -39.8432 11.918 -6.83905
ltibia 39.5408
lfoot -13.6898 8.91223
ltoes -28.6053
932
root 16.1829 16.333 5.28467 -355.943 195.325 5.57581
lowerback 12.3337 6.01602 3.25355
upperback 4.06243 7.98933 0.498537
thorax -2.21819 3.81977 -2.371
lowerneck -23.3577 6.1634 11.9178
upperneck 23.026 4.77928 -2.75633
head 11.8223 2.77471 -2.18091
rclavicle -4.60683e-014 1.21259e-014
rhumerus -16.5121 44.3107 -96.0051
rradius 69.639
rwrist -10.1456
rhand -19.9524 -25.5618
rfingers 7.12502
rthumb 6.38579 -55.4455
lclavicle -4.60683e-014 1.21259e-014
lhumerus -60.1794 -11.9901 90.4995
lradius 36.3384
lwrist 7.36834
lhand -22.3185 -17.0874
lfingers 7.12502
lthumb 4.1012 12.8529
rfemur 15.1686 -2.09483 33.979
rtibia 6.16875
rfoot -22.7854 13.3563
rtoes 33.0127
lfemur -40.1871 12.8383 -7.76413
ltibia 36.4925
lfoot -13.4792 8.57509
ltoes -25.899
933
root 16.0437 16.2548 5.07464 -356.154 194.442 5.53926
lowerback 12.3774 6.29661 2.95273
upperback 4.18786 8.30178 0.311171
thorax -2.10668 3.97297 -2.43466
lowerneck -23.2957 6.30393 12.1395
upperneck 22.7805 5.01725 -3.10311
head 11.7511 2.85515 -2.30382
rclavicle 1.7667e-014 1.2921e-014
rhumerus -14.2155 44.8077 -95.2456
rradius 70.8703
rwrist -9.75226
rhand -19.8682 -25.6873
rfingers 7.12502
rthumb 6.46703 -55.5686
lclavicle 1.7667e-014 1.2921e-014
lhumerus -61.9925 -12.8069 90.996
lradius 36.5106
lwrist 7.87311
lhand -22.5801 -17.2653
lfingers 7.12502
lthumb 3.84862 12.6797
rfemur 16.4132 -1.0671 33.8984
rtibia 6.42337
rfoot -23.1631 12.7405
rtoes 33.067
lfemur -40.6147 13.7422 -8.3743
ltibia 33.5944
lfoot -12.9686 8.01458
ltoes -24.4253
934
root 15.891 16.1801 4.85358 -356.321 193.751 5.61824
lowerback 12.1712 6.50739 2.92294
upperback 4.30657 8.55357 0.137607
thorax -1.83342 4.10387 -2.59156
lowerneck -23.4334 6.49322 12.5294
upperneck 22.7787 5.28073 -3.63
head 11.8269 2.94094 -2.51517
rclavicle -2.29286e-014 4.74598e-015
rhumerus -12.3972 45.1473 -94.5084
rradius 72.4453
rwrist -9.71055
rhand -19.8589 -25.8673
rfingers 7.12502
rthumb 6.47608 -55.7483
lclavicle -2.29286e-014 4.74598e-015
lhumerus -63.8057 -13.7411 91.7321
lradius 36.7163
lwrist 8.51602
lhand -23.0597 -17.5659
lfingers 7.12502
lthumb 3.38545 12.387
rfemur 17.5069 -1.3039 33.3294
rtibia 6.74609
rfoot -23.3461 13.0303
rtoes 31.4727
lfemur -40.9662 14.4534 -8.9674
ltibia 30.7432
lfoot -12.3524 7.21418
ltoes -24.1585
